<?xml version="1.0" encoding="UTF-8"?>
<svg width="226px" height="350px" viewBox="0 0 226 350" version="1.1" xmlns="http://www.w3.org/2000/svg" xmlns:xlink="http://www.w3.org/1999/xlink">
    <!-- Generator: Sketch 64 (93537) - https://sketch.com -->
    <title>character</title>
    <desc>Created with Sketch.</desc>
    <defs>
        <filter x="-2.2%" y="-22.4%" width="104.4%" height="144.8%" filterUnits="objectBoundingBox" id="filter-1">
            <feGaussianBlur stdDeviation="0.970778252" in="SourceGraphic"></feGaussianBlur>
        </filter>
        <filter x="-3.6%" y="-12.5%" width="107.2%" height="125.1%" filterUnits="objectBoundingBox" id="filter-2">
            <feGaussianBlur stdDeviation="0.970778252" in="SourceGraphic"></feGaussianBlur>
        </filter>
    </defs>
    <g id="Page-1" stroke="none" stroke-width="1" fill="none" fill-rule="evenodd">
        <g id="Page1" transform="translate(-1119.000000, -129.000000)">
            <g id="character" transform="translate(1121.000000, 129.000000)">
                <ellipse id="Oval" fill="#FFA446" opacity="0.288271949" filter="url(#filter-1)" cx="156.5" cy="341.5" rx="65.5" ry="6.5"></ellipse>
                <g id="girl" transform="translate(48.000000, 0.000000)">
                    <g id="Group-12">
                        <g id="Group" transform="translate(57.859336, 136.050371)">
                            <g fill-rule="nonzero" id="Path">
                                <g transform="translate(0.000000, 164.830328)">
                                    <polygon fill="#ECACA1" points="26.5235733 27.0401908 23.3039488 0.102704132 37.4089704 2.46564156 39.2487559 30.8208907 25.756996 27.8278366"></polygon>
                                    <g transform="translate(0.000000, 20.478791)">
                                        <path d="M41.3951722,3.41081653 C41.3951722,3.41081653 30.0498287,7.66410389 24.9904188,0.102704132 L0.153315453,13.3351537 L44.4614813,14.9104453 L41.3951722,3.41081653 Z" fill="#FF234A"></path>
                                        <polygon fill="#FFFFFF" points="0 17.4309119 44.3081658 19.1637327 44.4614813 15.0679745 0.153315453 13.3351537"></polygon>
                                    </g>
                                </g>
                                <path d="M14.4116525,0.787645808 C14.4116525,0.787645808 8.27903444,25.2046659 11.9586053,95.1476136 L17.4779616,175.329957 L45.9946358,175.329957 L37.8689168,2.0478791 L14.4116525,0.787645808 Z" fill="#6451C5"></path>
                            </g>
                            <g transform="translate(16.864700, 7.876458)" id="Path">
                                <g transform="translate(62.326181, 138.625662)" fill-rule="nonzero">
                                    <polygon fill="#ECACA1" points="15.8646998 30.8757157 0.686469979 8.50657473 12.7983907 0.787645808 27.8233051 25.0471367 15.8646998 31.9784198"></polygon>
                                    <g transform="translate(0.000000, 18.328208)">
                                        <path d="M25.0636269,0.102704132 C25.0636269,0.102704132 19.2376397,11.1297454 10.4986589,8.76680802 L0.379839074,35.5467655 L34.7225005,6.71892892 L25.0636269,0.102704132 Z" fill="#FF234A"></path>
                                        <polygon fill="#FFFFFF" points="2.98620177 38.6973487 37.3288632 9.71198299 34.8758159 6.56139976 0.533154526 35.5467655"></polygon>
                                    </g>
                                </g>
                                <g>
                                    <path d="M37.255655,0.472587485 C37.255655,0.472587485 47.067844,10.0818663 46.761213,37.6494696 C46.4545821,65.2170729 54.886932,93.8873803 54.886932,93.8873803 L24.0705261,97.1954927 C24.0705261,97.1954927 6.59256446,59.5460231 0.766577263,2.83552491 L37.255655,0.472587485 Z" fill="#6451C5" fill-rule="nonzero"></path>
                                    <path d="M47.8344212,80.1823433 C47.8344212,80.1823433 83.7102371,117.831813 94.2890034,144.61177 L66.0789601,159.419512 L24.377157,97.3530219 L47.8344212,80.1823433 Z" fill="#6451C5" fill-rule="nonzero"></path>
                                    <path d="M26.5235733,100.818663 C26.5235733,100.818663 19.7776934,95.3051428 16.251438,80.1823433 C12.878498,65.0595438 7.66577263,39.2247613 7.66577263,39.2247613 L1.53315453,31.3483032" stroke="#B2ACC7" stroke-width="0.550000012"></path>
                                </g>
                            </g>
                        </g>
                        <g id="Group" transform="translate(60.925645, 0.000000)">
                            <g transform="translate(22.997318, 0.000000)" fill-rule="nonzero" id="Oval">
                                <ellipse fill="#081669" cx="25.4503651" cy="14.7529162" rx="14.2583371" ry="14.650212"></ellipse>
                                <ellipse fill="#FF234A" cx="12.1119208" cy="27.1977199" rx="11.8052899" ry="12.1297454"></ellipse>
                            </g>
                            <polygon id="Path" fill="#ECACA1" fill-rule="nonzero" points="17.7845925 58.5460231 23.7638952 77.1344642 40.321964 70.2031811 31.1230369 42.3205195"></polygon>
                            <path d="M21.3108479,69.4155353 C21.1575325,69.1004769 24.377157,57.7583773 24.377157,57.7583773 L17.4779616,60.9089605 L21.3108479,69.4155353 Z" id="Path" fill="#ED9083" fill-rule="nonzero"></path>
                            <path d="M12.7251826,19.9513785 C12.7251826,19.9513785 4.13951722,21.369141 3.67957086,32.5537114 C3.67957086,32.5537114 3.37293996,40.5876987 3.2196245,52.2448566 C3.06630905,58.3884939 8.43234989,63.271898 14.2583371,62.0116647 C17.7845925,61.2240189 21.7707943,59.6487272 25.2970497,56.8132023 L30.2031442,52.0873275 C41.8551186,38.6973487 31.1230369,17.4309119 13.9517062,19.7938493 C13.6450753,19.7938493 13.1851289,19.7938493 12.7251826,19.9513785 Z" id="Path" fill="#ECACA1" fill-rule="nonzero"></path>
                            <path d="M5.21272539,42.7931069 L1.07320817,47.2039235 C0.306630905,47.8340401 0.459946358,49.4093317 1.22652362,49.4093317 L5.05940994,49.8819192 L5.05940994,42.7931069 L5.21272539,42.7931069 Z" id="Path" fill="#ECACA1" fill-rule="nonzero"></path>
                            <g transform="translate(4.066309, 35.231707)">
                                <path d="M3.29283267,0.315058323 C3.29283267,0.315058323 0.379839074,-0.157529162 0.226523621,1.10270413 C0.226523621,1.10270413 0.0732081683,2.0478791 2.52625541,2.36293742 C4.97930265,2.67799575 5.74587992,2.52046659 6.05251082,1.73282078 C6.35914173,0.94517497 4.67267175,0.472587485 3.29283267,0.315058323 Z" id="Path" fill="#03041F" fill-rule="nonzero"></path>
                                <ellipse id="Oval" fill="#03041F" fill-rule="nonzero" transform="translate(2.576160, 7.832901) rotate(-10.748117) translate(-2.576160, -7.832901) " cx="2.57615959" cy="7.83290127" rx="1.22776621" ry="1.25913209"></ellipse>
                                <path d="M0.492586863,17.4710098 C1.10584867,18.1011265 3.40558046,17.7860682 3.86552682,16.5258349" id="Path" stroke="#1D0A05" stroke-width="0.585933122" stroke-linecap="round" stroke-linejoin="round"></path>
                            </g>
                            <path d="M24.2238415,39.8000529 C24.2238415,39.8000529 29.2832514,12.8625662 6.59256446,23.7320784 C6.59256446,23.7320784 15.3315453,8.92433718 35.2625541,17.9034994 C39.4020713,19.7938493 43.694904,24.9923117 44.6147967,29.5606574 C45.8413203,36.964528 41.8551186,43.4232236 35.4158696,55.0803815 L27.7500969,45.9436902 C27.443466,44.3683986 24.2238415,39.8000529 24.2238415,39.8000529 Z" id="Path" fill="#081669" fill-rule="nonzero"></path>
                            <path d="M31.5829832,31.9235948 L26.9835197,43.1081653 C-1.99310088,33.8139447 11.192028,19.7938493 11.192028,19.7938493 C11.192028,19.7938493 34.6492923,12.5475079 31.5829832,31.9235948 Z" id="Path" fill="#081669" fill-rule="nonzero"></path>
                            <polygon id="Path" fill="#03041F" fill-rule="nonzero" points="16.8646998 37.2795863 22.0774252 43.8958111 26.0636269 36.1768822"></polygon>
                            <path d="M15.3315453,21.2116118 C15.3315453,21.2116118 5.36604084,22.9444326 3.98620177,30.0332448 C3.98620177,30.0332448 2.29973179,22.3143159 11.6519744,18.8486744 C20.8509016,15.2255037 15.3315453,21.2116118 15.3315453,21.2116118 Z" id="Path" fill="#03041F" fill-rule="nonzero"></path>
                            <g transform="translate(20.931009, 35.231707)">
                                <ellipse id="Oval" fill="#ECACA1" fill-rule="nonzero" cx="6.05251082" cy="6.77375395" rx="5.67267175" ry="5.82857898"></ellipse>
                                <path d="M4.21272539,8.97916221 C4.21272539,8.97916221 3.90609448,4.72587485 7.89229625,5.04093317" id="Path" stroke="#1D0A05" stroke-width="0.585933122" stroke-linecap="round" stroke-linejoin="round"></path>
                            </g>
                        </g>
                        <g id="Group" transform="translate(0.000000, 58.285790)">
                            <path d="M116.119208,17.9034994 C116.119208,17.9034994 138.96321,32.8687698 142.489465,78.0796392 C142.949412,83.4356306 139.269841,88.0039763 134.057116,88.7916221 L134.057116,88.7916221 C129.151021,89.579268 122.865087,86.4286847 121.485248,81.5452807 L106.153703,35.074178 L116.119208,17.9034994 Z" id="Path" fill="#F8D44E" fill-rule="nonzero"></path>
                            <g transform="translate(0.000000, 14.752916)" fill-rule="nonzero">
                                <path d="M69.9712563,8.03398724 L53.259872,41.4301695 C50.9601402,46.786161 53.1065565,52.9297983 58.012651,55.7653232 L58.012651,55.7653232 C63.2253764,58.6008481 69.8179409,56.552969 72.577619,51.1969775 L91.2821042,18.9034994 C94.0417824,13.7050371 92.8152588,7.4038706 88.3691106,3.62317072 L88.3691106,3.62317072 C82.5431234,-1.57529162 73.1908808,0.630116647 69.9712563,8.03398724 Z" id="Path" fill="#F8D44E"></path>
                                <g transform="translate(0.599464, 14.177625)">
                                    <g>
                                        <ellipse id="Oval" fill="#ECACA1" cx="10.3453435" cy="13.2324496" rx="10.2721353" ry="10.5544538"></ellipse>
                                        <path d="M8.35224261,2.99305407 C8.35224261,2.99305407 8.81218897,-1.26023329 13.7182835,0.94517497 C17.8578007,2.83552491 23.6837879,9.4517497 18.9310088,18.7459702 L8.35224261,2.99305407 Z" id="Path" fill="#ECACA1"></path>
                                        <polygon id="Path" fill="#EDAC9F" points="40.8551186 15.4378578 18.1644316 9.4517497 13.1050216 23.3143159 37.4821786 30.4031282"></polygon>
                                    </g>
                                    <path d="M65.0789601,23.1567868 L24.1437342,8.82163305 L20.1575325,28.5127783 L58.0264493,42.2178153 C63.8524365,44.7382819 70.5983164,41.1151112 71.6715245,34.6564156 L71.6715245,34.6564156 C72.7447327,29.6154824 69.8317391,24.7320784 65.0789601,23.1567868 Z" id="Path" fill="#F8D44E"></path>
                                </g>
                                <path d="M17.0774252,20.6363202 L17.2307406,17.1706786 L11.7113843,12.7598621 C10.9448071,12.1297454 9.71828345,12.2872746 9.10502164,12.9173913 L9.10502164,12.9173913 C8.64507528,13.3899787 8.33844438,14.1776245 9.25833709,15.2803287 L16.6174788,21.1089077" id="Path" fill="#ECACA1"></path>
                            </g>
                            <g transform="translate(65.525108, 14.177625)" id="Path">
                                <path d="M10.4254508,5.93128311 C7.05251082,10.8146871 1.53315453,20.8965535 1.37983907,34.4440614 C1.37983907,34.7591197 1.37983907,35.2317072 1.37983907,35.5467655 C1.68646998,38.5398196 0.766577263,61.0664897 0.306630905,72.7236477 C0.153315453,75.7167017 1.68646998,81.5452807 4.13951722,82.9630432 C9.35224261,85.9560972 31.8896141,88.634093 50.5940994,83.2781015 C53.2004621,82.4904557 54.7336166,79.6549308 53.9670393,76.8194059 C51.9739384,69.7305936 44.9214276,52.8749733 49.8275221,39.4849945 C61.632812,7.50657473 50.2874685,1.67799575 42.008434,0.102704132 C40.9352258,-0.0548250301 36.9490241,2.46564156 35.8758159,2.46564156 L16.251438,2.78069988 C13.9517062,2.62317072 11.8052899,3.88340401 10.4254508,5.93128311 Z" fill="#FDD656" fill-rule="nonzero"></path>
                                <path d="M7.20582627,14.9104453 C7.20582627,14.9104453 0.61326181,21.2116118 1.53315453,39.0124071 C1.53315453,39.0124071 1.07320817,47.5189818 1.07320817,56.9707315" stroke="#F3A12D" stroke-width="0.550000012"></path>
                            </g>
                            <g transform="translate(73.190881, 0.000000)" fill-rule="nonzero" id="Path">
                                <g transform="translate(12.265236, 6.876458)" fill="#FF5A4C">
                                    <path d="M11.4986589,0.787645808 C11.4986589,0.787645808 19.0111161,25.8347825 44.1548504,28.8278366 C67.7654301,31.6633615 65.3123828,24.5745492 84.9367607,26.7799575 C84.9367607,26.7799575 81.8704517,33.5537114 70.5251082,44.8958111 C64.2391746,51.0394484 64.5458056,55.6077941 64.5458056,55.6077941 C64.5458056,55.6077941 27.5967815,57.0255565 13.0318135,37.4919405 C2.60636269,23.6293742 0.153315453,5.82857898 0.153315453,5.82857898 L11.4986589,0.787645808 Z"></path>
                                    <g transform="translate(60.793027, 29.355249)">
                                        <path d="M27.6699896,3.72587485 C27.9766205,3.72587485 28.4365669,3.41081653 28.4365669,3.0957582 C28.4365669,2.62317072 28.2832514,2.30811239 27.8233051,2.15058323 L16.1713307,0.260233293 C15.7113843,0.260233293 15.4047534,0.417762455 15.251438,0.89034994 C15.251438,1.36293742 15.4047534,1.67799575 15.8646998,1.83552491 L27.6699896,3.72587485 C27.5166742,3.72587485 27.6699896,3.72587485 27.6699896,3.72587485 Z"></path>
                                        <path d="M23.377157,9.39692467 C23.6837879,9.39692467 24.1437342,9.08186635 24.1437342,8.76680802 C24.1437342,8.29422054 23.9904188,7.97916221 23.5304724,7.82163305 L11.878498,5.93128311 C11.4185517,5.77375395 11.1119208,6.08881227 10.9586053,6.56139976 C10.9586053,7.03398724 11.1119208,7.34904557 11.5718671,7.50657473 L23.377157,9.39692467 C23.377157,9.39692467 23.377157,9.39692467 23.377157,9.39692467 Z"></path>
                                        <path d="M17.8578007,15.540562 C18.1644316,15.540562 18.6243779,15.2255037 18.6243779,14.9104453 C18.6243779,14.4378578 18.4710625,14.1227995 18.0111161,13.9652704 L6.35914173,12.0749204 C5.89919537,12.0749204 5.59256446,12.2324496 5.43924901,12.7050371 C5.43924901,13.1776245 5.59256446,13.4926829 6.05251082,13.650212 L17.8578007,15.540562 C17.7044852,15.540562 17.7044852,15.540562 17.8578007,15.540562 Z"></path>
                                        <path d="M12.6450753,22.7869034 C12.9517062,22.7869034 13.4116525,22.4718451 13.4116525,22.1567868 C13.4116525,21.6841993 13.2583371,21.369141 12.7983907,21.2116118 L1.14641634,19.3212619 C0.686469979,19.1637327 0.379839074,19.478791 0.226523621,19.9513785 C0.226523621,20.423966 0.379839074,20.7390243 0.839785431,20.8965535 L12.6450753,22.7869034 C12.6450753,22.7869034 12.6450753,22.7869034 12.6450753,22.7869034 Z"></path>
                                    </g>
                                </g>
                                <path d="M2.9129936,4.67104982 C7.66577263,5.61622479 19.1644316,7.19151641 27.443466,0.575291617 C28.3633587,-0.212354192 29.5898824,0.102704132 30.0498287,1.20540826 L34.6492923,13.0200954 C34.9559232,13.650212 34.8026077,14.2803287 34.3426614,14.9104453 C31.4296678,18.3760869 19.4710625,30.8208907 1.99310088,16.9583244 C1.53315453,16.6432661 1.37983907,16.1706786 1.37983907,15.6980911 L0.919892716,6.56139976 C0.919892716,5.45869563 1.83978543,4.51352066 2.9129936,4.67104982 Z" fill="#FF6C58"></path>
                            </g>
                        </g>
                    </g>
                    <g id="Group" transform="translate(74.724035, 117.146871)">
                        <g fill-rule="nonzero">
                            <g fill="#ECACA1">
                                <path d="M8.57375735,19.5840866 C13.4188234,19.5840866 19.1644316,16.0895694 19.1644316,10.8695122 C19.1644316,5.64945494 15.0459316,1.41776245 9.96550442,1.41776245 C4.88507724,1.41776245 0.766577263,5.64945494 0.766577263,10.8695122 C0.766577263,16.0895694 3.72869135,19.5840866 8.57375735,19.5840866 Z" id="Oval"></path>
                                <path d="M1.22652362,8.34904557 C1.22652362,8.34904557 -1.83978543,5.51352066 1.99310088,2.67799575 C5.8259872,-0.157529162 12.4185517,-1.73282078 17.937908,5.98610814 L1.22652362,8.34904557 Z" id="Path"></path>
                            </g>
                            <polygon id="Path" fill="#EDAC9F" points="15.0249144 5.82857898 29.7431978 8.97916221 26.5235733 21.1089077 13.3384444 17.3282078"></polygon>
                        </g>
                        <path d="M47.2211594,10.2393955 C46.3012667,9.92433718 22.0774252,5.98610814 22.0774252,5.98610814 L19.6243779,23.4718451 L57.3399793,30.0880699 L47.2211594,10.2393955 Z" id="Path" fill="#F8D44E" fill-rule="nonzero"></path>
                        <line x1="52.2805693" y1="10.8695122" x2="22.0774252" y2="5.98610814" id="Path" stroke="#F3A12D" stroke-width="0.550000012"></line>
                        <polyline id="Path" stroke="#F3A12D" stroke-width="0.550000012" points="43.2349576 27.252545 19.7776934 23.4718451 20.2376397 19.2185577"></polyline>
                    </g>
                </g>
                <g id="Group" transform="translate(0.000000, 318.000000)" fill="#FFA446" opacity="0.319986979">
                    <ellipse id="Oval-Copy-2" filter="url(#filter-2)" cx="40.4902097" cy="12.3270228" rx="40.4490938" ry="11.6196969"></ellipse>
                </g>
            </g>
        </g>
    </g>
</svg>