<?xml version="1.0" encoding="UTF-8"?>
<svg width="96px" height="173px" viewBox="0 0 96 173" version="1.1" xmlns="http://www.w3.org/2000/svg" xmlns:xlink="http://www.w3.org/1999/xlink">
    <!-- Generator: Sketch 64 (93537) - https://sketch.com -->
    <title>tree copy</title>
    <desc>Created with Sketch.</desc>
    <g id="Page-1" stroke="none" stroke-width="1" fill="none" fill-rule="evenodd">
        <g id="Page2" transform="translate(-1209.000000, -496.000000)">
            <g id="tree-copy" transform="translate(1209.000000, 496.000000)">
                <path d="M88.0222435,66.0596026 L88.0222435,66.0596026 C88.0222435,66.0596026 88.0222435,65.9205298 88.0222435,66.0596026 C87.8489714,65.781457 87.6756993,65.6423841 87.5024271,65.5033113 C76.4130106,53.8211921 79.8784533,36.7152318 80.9180861,32.9602649 C80.9180861,32.6821192 81.0913582,32.5430464 81.0913582,32.2649007 C81.0913582,32.2649007 81.0913582,32.1258278 81.0913582,32.1258278 L81.0913582,32.1258278 C81.4379025,30.4569536 81.6111746,28.7880795 81.6111746,27.1192053 C81.6111746,12.2384106 66.5364991,0 47.8231087,0 C29.2829905,0 14.0350428,12.0993377 14.0350428,27.1192053 C14.0350428,28.7880795 14.2083149,30.4569536 14.7281313,32.1258278 L14.7281313,32.1258278 C14.7281313,32.1258278 14.7281313,32.2649007 14.7281313,32.2649007 C14.7281313,32.5430464 14.9014034,32.6821192 14.9014034,32.9602649 C15.9410362,36.8543046 19.2332068,53.9602649 8.31706238,65.5033113 C8.14379025,65.6423841 8.14379025,65.781457 7.97051812,65.9205298 C7.97051812,65.9205298 7.97051812,65.9205298 7.97051812,66.0596026 L7.97051812,66.0596026 C2.94562626,72.1788079 0,79.5496689 0,87.4768212 C0,108.754967 21.4857445,126 47.9963808,126 C74.5070172,126 95.9927617,108.754967 95.9927617,87.4768212 C96.1660338,79.5496689 93.2204075,72.1788079 88.0222435,66.0596026 Z" id="Path" fill="#008080" fill-rule="nonzero"></path>
                <line x1="48" y1="37" x2="48" y2="173" id="Path" stroke="#F7B500" stroke-width="3" fill="#F7B500"></line>
                <line x1="21" y1="65" x2="48" y2="97" id="Path" stroke="#FFFFFF" stroke-width="0.754941176"></line>
                <line x1="67" y1="42" x2="48" y2="61" id="Path" stroke="#FFFFFF" stroke-width="0.754941176"></line>
            </g>
        </g>
    </g>
</svg>