<?xml version="1.0" encoding="UTF-8"?>
<svg width="110px" height="237px" viewBox="0 0 110 237" version="1.1" xmlns="http://www.w3.org/2000/svg" xmlns:xlink="http://www.w3.org/1999/xlink">
    <!-- Generator: Sketch 64 (93537) - https://sketch.com -->
    <title>tree copy 3</title>
    <desc>Created with Sketch.</desc>
    <g id="Page-1" stroke="none" stroke-width="1" fill="none" fill-rule="evenodd">
        <g id="Page2" transform="translate(-1138.000000, -99.000000)">
            <g id="tree-copy-3" transform="translate(1138.000000, 99.000000)">
                <path d="M100.858821,72.3509934 L100.858821,72.3509934 C100.858821,72.3509934 100.858821,72.1986755 100.858821,72.3509934 C100.66028,72.0463576 100.461739,71.8940397 100.263198,71.7417219 C87.5565747,58.9470199 91.5273944,40.2119205 92.7186403,36.0993377 C92.7186403,35.794702 92.9171813,35.6423841 92.9171813,35.3377483 C92.9171813,35.3377483 92.9171813,35.1854305 92.9171813,35.1854305 L92.9171813,35.1854305 C93.3142633,33.3576159 93.5128042,31.5298013 93.5128042,29.7019868 C93.5128042,13.4039735 76.2397385,0 54.797312,0 C33.5534266,0 16.0818198,13.2516556 16.0818198,29.7019868 C16.0818198,31.5298013 16.2803608,33.3576159 16.8759838,35.1854305 L16.8759838,35.1854305 C16.8759838,35.1854305 16.8759838,35.3377483 16.8759838,35.3377483 C16.8759838,35.6423841 17.0745248,35.794702 17.0745248,36.0993377 C18.2657707,40.3642384 22.0380494,59.0993377 9.52996731,71.7417219 C9.33142633,71.8940397 9.33142633,72.0463576 9.13288534,72.1986755 C9.13288534,72.1986755 9.13288534,72.1986755 9.13288534,72.3509934 L9.13288534,72.3509934 C3.37519676,79.0529801 0,87.1258278 0,95.807947 C0,119.112583 24.6190822,138 54.995853,138 C85.3726238,138 109.991706,119.112583 109.991706,95.807947 C110.190247,87.1258278 106.81505,79.0529801 100.858821,72.3509934 Z" id="Path" fill="#FAB833" fill-rule="nonzero"></path>
                <line x1="55.2058824" y1="40" x2="55.1587836" y2="236.900348" id="Path" stroke="#2E8B57" stroke-width="2"></line>
                <line x1="24" y1="72" x2="55" y2="107" id="Path" stroke="#2E8B57" stroke-width="2"></line>
                <line x1="77" y1="47" x2="55" y2="68" id="Path" stroke="#2E8B57" stroke-width="2"></line>
            </g>
        </g>
    </g>
</svg>